<svg version="1.1" id="Layer_1" xmlns="http://www.w3.org/2000/svg" xmlns:xlink="http://www.w3.org/1999/xlink" x="0px" y="0px"
	 width="100%" viewBox="0 0 810 620" enable-background="new 0 0 810 620" xml:space="preserve">
<path fill="#13130E" opacity="1.000000" stroke="none" 
	d="
M563.000000,621.000000 
	C375.333344,621.000000 188.166672,621.000000 1.000000,621.000000 
	C1.000000,414.333344 1.000000,207.666672 1.000000,1.000000 
	C271.000000,1.000000 541.000000,1.000000 811.000000,1.000000 
	C811.000000,207.666672 811.000000,414.333344 811.000000,621.000000 
	C728.500000,621.000000 646.000000,621.000000 563.000000,621.000000 
M750.665405,516.501831 
	C750.860046,516.379578 750.921265,516.206848 750.932617,515.407715 
	C751.235168,514.920166 751.537720,514.432556 752.480896,513.664551 
	C755.740051,511.889160 756.596436,509.070038 757.102966,505.468048 
	C758.216553,497.549164 753.961853,491.539886 750.838257,485.111237 
	C747.407532,478.050598 742.192383,473.986603 733.988159,472.190704 
	C723.470459,469.888458 713.131226,471.752014 702.741760,471.178925 
	C701.527527,471.111938 700.236389,472.438843 698.256775,473.301575 
	C697.518738,473.237885 696.780640,473.174194 695.785034,472.975159 
	C695.489807,472.895416 695.214050,472.941376 694.320190,473.288483 
	C693.886475,473.234131 693.452759,473.179779 692.640747,472.550659 
	C690.518860,470.440857 688.647156,470.744019 686.140137,473.330383 
	C681.732788,473.291931 677.325378,473.253479 672.790771,472.514923 
	C672.548340,470.896362 672.305908,469.277802 672.939941,467.444916 
	C675.951782,467.291656 678.963684,467.138397 682.091858,467.309601 
	C682.316345,467.496429 682.540833,467.683228 682.765320,467.870026 
	C682.780945,467.733124 682.857910,467.516327 682.801575,467.473083 
	C682.549316,467.279297 682.259155,467.134918 681.639221,466.393494 
	C676.027466,459.076904 670.415710,451.760284 664.823547,443.609253 
	C664.066467,434.904144 657.457092,431.026062 651.022888,426.966797 
	C651.022888,426.966797 651.049927,426.909393 651.004944,426.163666 
	C650.496338,422.432098 648.776794,419.779724 644.839600,419.155334 
	C644.839600,419.155334 644.811768,419.220947 644.790222,418.475586 
	C643.411804,414.011627 641.497314,410.009277 636.244080,408.709900 
	C636.244080,408.709900 636.250244,408.543610 636.260742,407.937225 
	C635.598755,407.285400 634.936707,406.633575 633.970886,405.745270 
	C633.970886,405.745270 633.850403,405.379547 633.921021,404.598450 
	C634.312988,399.228210 628.315308,392.186310 622.686340,391.312592 
	C622.686340,391.312592 622.693054,391.387115 622.527466,390.783569 
	C621.935486,390.248596 621.343567,389.713623 620.822266,389.161438 
	C620.822266,389.161438 620.797302,389.229675 620.783569,388.447235 
	C620.470764,384.591644 619.171265,381.572266 614.796021,381.186707 
	C614.796021,381.186707 614.720215,381.289795 614.769836,380.573425 
	C613.980042,370.988647 606.959534,365.927582 599.868286,361.569672 
	C595.755554,359.042236 590.513672,357.820251 585.627563,357.188354 
	C573.510498,355.621368 563.350830,360.402496 554.290100,368.139923 
	C547.044495,374.327271 539.718018,380.427246 532.261780,386.357788 
	C527.536377,390.116302 522.379700,393.335754 517.694336,397.139343 
	C516.336792,398.241425 515.940247,400.527435 514.861572,402.655396 
	C514.629639,402.869690 514.356262,402.989502 513.284607,403.044373 
	C505.657684,405.334473 500.582764,410.864960 495.189636,416.982513 
	C494.073334,417.935852 492.957031,418.889160 491.149841,420.005951 
	C487.390228,422.963348 483.630646,425.920746 479.128998,429.041779 
	C473.596985,430.013214 468.079620,431.694366 462.529877,431.809113 
	C450.780731,432.052002 439.014313,431.269653 427.255676,431.292053 
	C413.313171,431.318573 399.372284,431.873077 385.429108,431.973206 
	C368.527496,432.094635 351.624207,431.993591 334.721680,431.962158 
	C326.436920,431.946747 318.152313,431.851227 309.867523,431.828369 
	C301.922455,431.806458 293.977142,431.851013 286.032043,431.830872 
	C277.709808,431.809753 269.386108,431.624115 261.065918,431.731812 
	C250.117050,431.873535 239.150085,431.907654 228.231232,432.612610 
	C221.202484,433.066376 214.611145,435.495789 209.146881,440.327911 
	C208.302643,441.074493 207.134842,441.468872 206.091568,441.974304 
	C200.781631,444.546692 197.134781,448.276245 197.139145,455.080597 
	C196.851959,455.421631 196.564789,455.762665 195.669159,456.391327 
	C195.184158,457.345306 194.699173,458.299286 194.163696,459.258667 
	C194.163696,459.258667 194.222855,459.262451 193.486359,459.348572 
	C190.204224,459.726318 189.784454,461.681885 189.199112,464.768646 
	C186.942245,476.670166 185.750946,488.418732 189.702469,500.177856 
	C189.800323,500.469116 189.728973,500.851807 189.641602,501.165405 
	C188.797729,504.194550 189.799225,506.243713 192.638702,507.688599 
	C193.743805,508.250916 194.664246,509.440430 195.337326,510.546051 
	C201.344101,520.412720 209.385620,527.111023 220.896790,530.358887 
	C234.431046,534.177551 247.466965,536.718323 260.484772,529.150024 
	C261.719055,528.432434 263.353546,528.403259 265.296143,528.089722 
	C265.296143,528.089722 265.791199,528.098022 266.162140,528.552734 
	C266.774506,529.030212 267.386902,529.507629 268.100647,530.670410 
	C268.742981,533.827271 270.716553,533.941833 273.859283,533.064575 
	C276.576111,534.692749 279.292938,536.320923 282.235748,538.592896 
	C283.283844,539.612671 284.185425,540.873718 285.403534,541.613586 
	C294.018036,546.845581 302.687897,551.986755 311.360809,557.122009 
	C315.012085,559.283875 318.717163,561.354675 322.391327,563.478027 
	C327.851837,566.633789 333.216705,570.161682 340.812805,567.740967 
	C341.863281,567.763306 342.913757,567.785645 344.562225,568.134216 
	C350.446136,566.738525 356.390930,567.982361 362.435944,564.277527 
	C370.312622,559.450256 380.649780,559.723755 389.018585,555.043945 
	C389.156403,554.966919 389.350189,554.997192 389.503479,554.939392 
	C402.676819,549.971497 415.848724,544.999878 429.786041,540.046753 
	C432.819824,539.557739 435.960724,539.407837 438.859680,538.492004 
	C442.303406,537.404053 445.417419,535.046814 448.896240,534.353760 
	C453.055145,533.525269 457.289917,534.038391 460.831726,530.570923 
	C462.549622,528.889099 465.641998,528.452454 468.207336,527.875488 
	C469.190002,527.654480 471.223358,528.371460 471.439667,529.073425 
	C473.022736,534.210327 477.029968,534.025574 481.133484,533.986511 
	C512.759949,533.685486 544.386292,533.271790 576.013428,533.191467 
	C592.964111,533.148438 609.915405,533.834961 626.867981,533.941040 
	C649.332397,534.081543 671.798462,534.015442 694.263550,533.943909 
	C698.737793,533.929688 703.210449,533.300476 707.684326,533.293579 
	C713.993286,533.283813 720.306458,533.502502 726.610840,533.782166 
	C734.956543,534.152466 740.547546,528.919128 746.292664,524.135071 
	C747.525757,523.108215 747.914551,521.067505 748.760742,519.170471 
	C748.760742,519.170471 749.027161,518.975830 749.535217,518.642334 
	C749.855469,517.926086 750.175781,517.209839 750.579468,516.582336 
	C750.579468,516.582336 750.463623,516.544922 750.665405,516.501831 
M57.579479,446.489136 
	C46.332588,467.827728 46.999249,489.022522 60.516346,508.769775 
	C74.459366,529.139221 94.665100,537.865845 119.221619,534.691162 
	C125.719223,533.851135 131.867172,530.306641 138.785431,527.996643 
	C139.492920,527.647278 140.200409,527.297913 141.606918,526.833374 
	C180.776474,502.127594 180.916214,448.149261 141.873276,423.949707 
	C113.320320,406.252106 72.573509,416.986450 57.579479,446.489136 
M307.374695,355.016205 
	C306.535950,359.928986 305.795135,364.860962 304.835815,369.750061 
	C303.360718,377.267670 301.525604,384.720093 300.239746,392.267700 
	C299.186310,398.450836 299.907990,404.350311 305.755371,408.255035 
	C315.391693,414.689880 326.362701,410.167603 329.072601,398.249023 
	C332.099457,384.936432 334.438232,371.468994 337.277893,358.111755 
	C339.247040,348.849518 337.197662,341.158417 330.098389,334.570496 
	C325.394623,330.205505 321.381470,325.096283 317.286804,320.571777 
	C317.671722,319.580566 317.700806,319.119873 317.920502,318.995239 
	C328.187439,313.170319 338.438293,307.315399 348.774689,301.615753 
	C351.481537,300.123138 352.697327,302.084930 353.442841,304.377563 
	C355.554840,310.872406 357.518677,317.419983 359.814636,323.849030 
	C361.540985,328.683075 363.048737,333.779053 365.785461,338.029907 
	C371.373230,346.709198 384.111725,346.100189 389.654816,337.360596 
	C392.480988,332.904602 392.462830,328.199921 390.857697,323.428986 
	C385.440704,307.328247 380.117645,291.192474 374.418488,275.191284 
	C370.606781,264.489532 361.811859,261.267181 351.537598,266.442963 
	C345.440613,269.514374 339.380890,272.687897 333.496063,276.142059 
	C329.671661,278.386841 328.027924,277.499023 326.813934,273.374298 
	C322.675812,259.314758 318.372467,245.301514 313.912994,231.340622 
	C312.824310,227.932312 313.994141,226.530411 316.962494,225.325119 
	C326.528229,221.440887 336.177765,217.700531 345.458832,213.209915 
	C348.926117,211.532257 352.573120,208.486084 354.230804,205.123550 
	C359.968964,193.484100 365.000610,181.486694 370.031891,169.512405 
	C372.657837,163.262802 369.724792,156.304337 364.003784,153.978348 
	C358.120239,151.586304 352.261444,154.080078 349.291504,160.424973 
	C344.772339,170.079529 340.528748,179.867477 335.798096,189.415405 
	C334.664093,191.704239 332.405884,194.159485 330.097198,195.025711 
	C314.845398,200.748230 299.499420,206.238586 284.057159,211.426697 
	C276.174744,214.074921 267.945618,215.684387 260.039307,218.271088 
	C256.341064,219.481049 252.660095,221.422928 249.621246,223.847641 
	C238.561371,232.672379 227.781067,241.847244 216.884888,250.877502 
	C211.107971,255.665176 209.792496,259.708588 212.462021,266.707794 
	C215.190933,273.862701 218.264877,280.888824 221.295349,287.925018 
	C223.731461,293.581177 226.110977,299.279633 228.920547,304.751404 
	C231.276123,309.339020 236.045334,311.333282 240.676788,310.362274 
	C245.827820,309.282318 249.351517,305.751160 249.604950,300.377350 
	C249.740280,297.507599 249.006378,294.421326 247.959244,291.704712 
	C244.965332,283.937622 241.521347,276.344696 238.474426,268.596771 
	C237.879791,267.084656 237.514099,264.367523 238.340576,263.595459 
	C243.139267,259.112823 248.325943,255.045517 254.114746,250.227386 
	C255.370468,253.546494 256.357880,255.764923 257.058319,258.070557 
	C262.093201,274.643799 267.414093,291.141937 271.920685,307.858948 
	C274.196381,316.300690 278.909210,322.783051 284.566406,328.993439 
	C292.185303,337.357300 299.641388,345.869446 307.374695,355.016205 
M559.917786,286.706665 
	C567.290466,290.610565 573.826660,289.323608 576.888367,282.593903 
	C582.679504,269.864838 588.129883,256.972687 593.387878,244.012817 
	C595.615356,238.522446 593.977539,234.126236 589.354675,230.223419 
	C583.246521,225.066681 576.952515,220.114105 571.055481,214.726669 
	C559.210388,203.905182 546.584595,194.806244 530.052368,192.603226 
	C525.474304,191.993164 521.112976,189.681931 516.536560,189.153854 
	C511.021606,188.517456 505.224548,188.103134 499.834991,189.114075 
	C491.355469,190.704620 483.066864,193.412292 474.795380,195.964386 
	C471.447540,196.997345 469.593536,196.088913 467.760345,193.305954 
	C462.722290,185.657806 457.572449,178.075882 452.228851,170.638748 
	C447.808899,164.487152 441.186554,163.172379 435.717529,166.972839 
	C430.275726,170.754410 429.281433,177.335281 433.551056,183.739929 
	C440.664581,194.410660 447.912415,204.994080 455.249451,215.512589 
	C458.732849,220.506470 463.667389,222.439896 469.674255,221.012436 
	C474.372467,219.895950 479.017670,218.557968 483.704254,217.389999 
	C485.212708,217.014099 486.777924,216.865982 488.382019,216.603027 
	C488.543121,217.741257 488.784363,218.278458 488.655121,218.702805 
	C485.115173,230.327805 481.574310,241.952866 477.941223,253.548950 
	C476.980377,256.615814 475.000305,255.865768 472.801361,254.745361 
	C465.828278,251.192459 458.866547,247.599014 451.750793,244.348969 
	C443.092194,240.394272 434.437256,243.912384 430.829681,252.750046 
	C429.196991,256.749756 427.998993,260.928589 426.642181,265.038849 
	C422.361511,278.006470 417.791840,290.889771 413.940460,303.984070 
	C411.487823,312.322784 416.390625,320.070343 424.434082,322.197296 
	C431.914886,324.175476 439.141907,320.112122 442.026733,311.972351 
	C445.476379,302.238922 448.708435,292.427429 451.948792,282.621338 
	C452.824982,279.969818 453.957428,278.415253 456.949158,280.091003 
	C466.393860,285.381226 475.856049,290.640198 485.314301,295.906250 
	C488.024963,297.415466 488.246002,299.114319 486.056183,301.405975 
	C481.454163,306.222229 477.010223,311.189148 472.448120,316.044098 
	C468.436554,320.313232 466.309174,325.395538 467.409790,331.119446 
	C470.459686,346.981293 473.782257,362.793243 477.215576,378.577393 
	C478.257416,383.367035 481.216553,386.974518 486.000732,388.725403 
	C497.751556,393.025879 507.862732,383.746857 505.437225,370.641479 
	C503.406982,359.671539 501.098602,348.745575 498.581207,337.877106 
	C497.638367,333.806396 498.576324,330.882965 501.409363,327.985046 
	C507.578461,321.674744 513.429871,315.053741 519.604492,308.749023 
	C526.612000,301.593842 531.622375,293.567810 534.265686,283.681305 
	C538.651062,267.279144 543.947754,251.119965 548.914368,234.874924 
	C549.423035,233.211105 550.298035,231.659302 551.410522,229.128815 
	C556.307495,232.979187 560.475586,236.481094 564.884766,239.647232 
	C568.012878,241.893448 568.615417,244.352325 567.092712,247.803024 
	C563.798584,255.268097 560.620789,262.786377 557.514526,270.331940 
	C555.218628,275.908966 554.911804,281.353577 559.917786,286.706665 
M584.149109,154.464233 
	C592.239014,127.855209 571.268188,98.395317 540.013489,100.263611 
	C521.281677,101.383331 504.867493,115.902283 501.334045,134.460266 
	C497.660034,153.756454 507.657928,173.130188 525.325745,180.950806 
	C549.472290,191.639221 574.357178,180.721695 584.149109,154.464233 
M224.245834,144.794754 
	C217.099594,158.372864 218.221664,171.678497 225.405258,184.874527 
	C234.759537,202.057953 257.558075,210.692825 275.839844,203.871094 
	C296.302124,196.235718 308.476654,175.421371 304.105774,155.545959 
	C300.108368,137.368942 286.482239,124.493149 268.318359,121.729210 
	C250.460541,119.011841 234.041595,127.424942 224.245834,144.794754 
z"/>
<path fill="#306055" opacity="1.000000" stroke="none" 
	d="
M307.270996,354.667084 
	C299.641388,345.869446 292.185303,337.357300 284.566406,328.993439 
	C278.909210,322.783051 274.196381,316.300690 271.920685,307.858948 
	C267.414093,291.141937 262.093201,274.643799 257.058319,258.070557 
	C256.357880,255.764923 255.370468,253.546494 254.114746,250.227386 
	C248.325943,255.045517 243.139267,259.112823 238.340576,263.595459 
	C237.514099,264.367523 237.879791,267.084656 238.474426,268.596771 
	C241.521347,276.344696 244.965332,283.937622 247.959244,291.704712 
	C249.006378,294.421326 249.740280,297.507599 249.604950,300.377350 
	C249.351517,305.751160 245.827820,309.282318 240.676788,310.362274 
	C236.045334,311.333282 231.276123,309.339020 228.920547,304.751404 
	C226.110977,299.279633 223.731461,293.581177 221.295349,287.925018 
	C218.264877,280.888824 215.190933,273.862701 212.462021,266.707794 
	C209.792496,259.708588 211.107971,255.665176 216.884888,250.877502 
	C227.781067,241.847244 238.561371,232.672379 249.621246,223.847641 
	C252.660095,221.422928 256.341064,219.481049 260.039307,218.271088 
	C267.945618,215.684387 276.174744,214.074921 284.057159,211.426697 
	C299.499420,206.238586 314.845398,200.748230 330.097198,195.025711 
	C332.405884,194.159485 334.664093,191.704239 335.798096,189.415405 
	C340.528748,179.867477 344.772339,170.079529 349.291504,160.424973 
	C352.261444,154.080078 358.120239,151.586304 364.003784,153.978348 
	C369.724792,156.304337 372.657837,163.262802 370.031891,169.512405 
	C365.000610,181.486694 359.968964,193.484100 354.230804,205.123550 
	C352.573120,208.486084 348.926117,211.532257 345.458832,213.209915 
	C336.177765,217.700531 326.528229,221.440887 316.962494,225.325119 
	C313.994141,226.530411 312.824310,227.932312 313.912994,231.340622 
	C318.372467,245.301514 322.675812,259.314758 326.813934,273.374298 
	C328.027924,277.499023 329.671661,278.386841 333.496063,276.142059 
	C339.380890,272.687897 345.440613,269.514374 351.537598,266.442963 
	C361.811859,261.267181 370.606781,264.489532 374.418488,275.191284 
	C380.117645,291.192474 385.440704,307.328247 390.857697,323.428986 
	C392.462830,328.199921 392.480988,332.904602 389.654816,337.360596 
	C384.111725,346.100189 371.373230,346.709198 365.785461,338.029907 
	C363.048737,333.779053 361.540985,328.683075 359.814636,323.849030 
	C357.518677,317.419983 355.554840,310.872406 353.442841,304.377563 
	C352.697327,302.084930 351.481537,300.123138 348.774689,301.615753 
	C338.438293,307.315399 328.187439,313.170319 317.920502,318.995239 
	C317.700806,319.119873 317.671722,319.580566 317.286804,320.571777 
	C321.381470,325.096283 325.394623,330.205505 330.098389,334.570496 
	C337.197662,341.158417 339.247040,348.849518 337.277893,358.111755 
	C334.438232,371.468994 332.099457,384.936432 329.072601,398.249023 
	C326.362701,410.167603 315.391693,414.689880 305.755371,408.255035 
	C299.907990,404.350311 299.186310,398.450836 300.239746,392.267700 
	C301.525604,384.720093 303.360718,377.267670 304.835815,369.750061 
	C305.795135,364.860962 306.535950,359.928986 307.270996,354.667084 
z"/>
<path fill="#306155" opacity="1.000000" stroke="none" 
	d="
M559.630981,286.454193 
	C554.911804,281.353577 555.218628,275.908966 557.514526,270.331940 
	C560.620789,262.786377 563.798584,255.268097 567.092712,247.803024 
	C568.615417,244.352325 568.012878,241.893448 564.884766,239.647232 
	C560.475586,236.481094 556.307495,232.979187 551.410522,229.128815 
	C550.298035,231.659302 549.423035,233.211105 548.914368,234.874924 
	C543.947754,251.119965 538.651062,267.279144 534.265686,283.681305 
	C531.622375,293.567810 526.612000,301.593842 519.604492,308.749023 
	C513.429871,315.053741 507.578461,321.674744 501.409363,327.985046 
	C498.576324,330.882965 497.638367,333.806396 498.581207,337.877106 
	C501.098602,348.745575 503.406982,359.671539 505.437225,370.641479 
	C507.862732,383.746857 497.751556,393.025879 486.000732,388.725403 
	C481.216553,386.974518 478.257416,383.367035 477.215576,378.577393 
	C473.782257,362.793243 470.459686,346.981293 467.409790,331.119446 
	C466.309174,325.395538 468.436554,320.313232 472.448120,316.044098 
	C477.010223,311.189148 481.454163,306.222229 486.056183,301.405975 
	C488.246002,299.114319 488.024963,297.415466 485.314301,295.906250 
	C475.856049,290.640198 466.393860,285.381226 456.949158,280.091003 
	C453.957428,278.415253 452.824982,279.969818 451.948792,282.621338 
	C448.708435,292.427429 445.476379,302.238922 442.026733,311.972351 
	C439.141907,320.112122 431.914886,324.175476 424.434082,322.197296 
	C416.390625,320.070343 411.487823,312.322784 413.940460,303.984070 
	C417.791840,290.889771 422.361511,278.006470 426.642181,265.038849 
	C427.998993,260.928589 429.196991,256.749756 430.829681,252.750046 
	C434.437256,243.912384 443.092194,240.394272 451.750793,244.348969 
	C458.866547,247.599014 465.828278,251.192459 472.801361,254.745361 
	C475.000305,255.865768 476.980377,256.615814 477.941223,253.548950 
	C481.574310,241.952866 485.115173,230.327805 488.655121,218.702805 
	C488.784363,218.278458 488.543121,217.741257 488.382019,216.603027 
	C486.777924,216.865982 485.212708,217.014099 483.704254,217.389999 
	C479.017670,218.557968 474.372467,219.895950 469.674255,221.012436 
	C463.667389,222.439896 458.732849,220.506470 455.249451,215.512589 
	C447.912415,204.994080 440.664581,194.410660 433.551056,183.739929 
	C429.281433,177.335281 430.275726,170.754410 435.717529,166.972839 
	C441.186554,163.172379 447.808899,164.487152 452.228851,170.638748 
	C457.572449,178.075882 462.722290,185.657806 467.760345,193.305954 
	C469.593536,196.088913 471.447540,196.997345 474.795380,195.964386 
	C483.066864,193.412292 491.355469,190.704620 499.834991,189.114075 
	C505.224548,188.103134 511.021606,188.517456 516.536560,189.153854 
	C521.112976,189.681931 525.474304,191.993164 530.052368,192.603226 
	C546.584595,194.806244 559.210388,203.905182 571.055481,214.726669 
	C576.952515,220.114105 583.246521,225.066681 589.354675,230.223419 
	C593.977539,234.126236 595.615356,238.522446 593.387878,244.012817 
	C588.129883,256.972687 582.679504,269.864838 576.888367,282.593903 
	C573.826660,289.323608 567.290466,290.610565 559.630981,286.454193 
z"/>
<path fill="#C1A052" opacity="1.000000" stroke="none" 
	d="
M140.907898,526.948547 
	C140.200409,527.297913 139.492920,527.647278 138.060638,527.999817 
	C135.092606,528.538940 132.769424,528.856628 130.618423,529.644470 
	C107.622498,538.066895 87.169044,532.320251 69.885811,516.618652 
	C58.735252,506.488495 52.917969,492.773254 52.900185,477.075836 
	C52.887928,466.259216 55.597301,456.104126 59.435860,445.932922 
	C62.115833,443.584473 65.152962,441.747711 66.696533,439.054840 
	C71.074120,431.417725 78.024246,426.455688 85.548592,423.646820 
	C94.199379,420.417419 103.748932,418.902802 113.017998,418.280731 
	C118.634766,417.903809 124.919411,419.679504 130.086121,422.178833 
	C138.336594,426.169952 147.412704,430.189545 153.387146,436.716614 
	C161.063980,445.103607 166.956390,455.461975 167.742081,467.765656 
	C168.571594,480.755554 168.655930,493.607361 160.446304,504.545776 
	C155.797272,510.740112 149.994415,516.063599 144.783157,521.844116 
	C143.357849,523.425171 142.192551,525.240662 140.907898,526.948547 
z"/>
<path fill="#2F6055" opacity="1.000000" stroke="none" 
	d="
M584.042114,154.850922 
	C574.357178,180.721695 549.472290,191.639221 525.325745,180.950806 
	C507.657928,173.130188 497.660034,153.756454 501.334045,134.460266 
	C504.867493,115.902283 521.281677,101.383331 540.013489,100.263611 
	C571.268188,98.395317 592.239014,127.855209 584.042114,154.850922 
z"/>
<path fill="#2F6155" opacity="1.000000" stroke="none" 
	d="
M224.417725,144.465332 
	C234.041595,127.424942 250.460541,119.011841 268.318359,121.729210 
	C286.482239,124.493149 300.108368,137.368942 304.105774,155.545959 
	C308.476654,175.421371 296.302124,196.235718 275.839844,203.871094 
	C257.558075,210.692825 234.759537,202.057953 225.405258,184.874527 
	C218.221664,171.678497 217.099594,158.372864 224.417725,144.465332 
z"/>
<path fill="#20190C" opacity="1.000000" stroke="none" 
	d="
M264.802246,528.054565 
	C263.353546,528.403259 261.719055,528.432434 260.484772,529.150024 
	C247.466965,536.718323 234.431046,534.177551 220.896790,530.358887 
	C209.385620,527.111023 201.344101,520.412720 195.337326,510.546051 
	C194.664246,509.440430 193.743805,508.250916 192.638702,507.688599 
	C189.799225,506.243713 188.797729,504.194550 189.641602,501.165405 
	C189.728973,500.851807 189.800323,500.469116 189.702469,500.177856 
	C185.750946,488.418732 186.942245,476.670166 189.199112,464.768646 
	C189.784454,461.681885 190.204224,459.726318 193.798279,459.663239 
	C193.570450,461.195618 192.976685,462.392548 192.498993,463.634155 
	C185.012680,483.092316 188.288330,500.724487 202.202499,516.066406 
	C216.639511,531.984863 235.529984,532.326599 255.021393,530.098572 
	C248.129181,525.655273 241.023865,521.715088 233.991669,517.648499 
	C221.171295,510.234711 216.044342,493.168060 222.849640,480.793060 
	C230.515533,466.853149 246.048477,461.925323 260.072021,468.998169 
	C262.599060,470.272675 265.125916,471.552826 267.601685,472.922729 
	C284.645325,482.353210 301.675385,491.808258 318.711884,501.239929 
	C318.713959,501.224426 318.727936,501.239014 318.937317,501.518219 
	C326.434937,505.958252 333.679749,510.198944 341.052887,514.203369 
	C342.320129,514.891663 344.311768,515.101379 345.667755,514.642639 
	C365.951355,507.779694 386.184387,500.767273 406.466675,493.822876 
	C406.504059,493.855713 406.571198,493.782288 406.935822,493.707153 
	C409.344055,492.761688 411.387634,491.891388 413.676697,491.101501 
	C415.680237,490.511658 417.438293,489.841339 419.522797,489.175385 
	C420.831573,488.785522 421.813965,488.391296 423.177856,488.034180 
	C425.370575,487.350311 427.181732,486.629364 429.280853,485.951843 
	C430.062775,485.727997 430.556702,485.460785 431.425354,485.187134 
	C433.581970,484.449341 435.363922,483.717926 437.326447,482.962341 
	C437.507019,482.938232 437.850952,482.817932 438.195801,482.895447 
	C439.776001,482.424774 441.011353,481.876587 442.572998,481.358215 
	C443.882812,480.977783 444.866333,480.567596 446.251251,480.201935 
	C448.614929,479.512146 450.577179,478.777832 452.622131,478.087830 
	C452.704803,478.132141 452.814362,477.979828 453.227844,477.965973 
	C460.077332,475.697845 466.470276,476.412354 472.856812,478.197266 
	C472.866364,478.164062 472.798615,478.150085 473.003296,478.435150 
	C478.073303,482.897278 482.938629,487.074341 487.809692,491.202026 
	C487.815491,491.152649 487.716644,491.141632 487.751038,491.537781 
	C491.673950,501.942902 490.817932,511.612335 485.525146,521.059814 
	C485.129181,521.326172 485.011200,521.558777 484.693634,522.022095 
	C481.287140,524.974548 478.176331,527.744995 474.643585,530.891235 
	C476.130951,530.962036 476.949707,531.034851 477.768463,531.035034 
	C530.858704,531.048828 583.948975,531.058716 637.039185,531.054504 
	C638.363647,531.054382 639.688110,530.893982 641.328491,530.879395 
	C642.070618,530.902161 642.496887,530.853821 643.390625,530.901306 
	C671.288086,531.011292 698.721802,531.257568 726.144470,530.815552 
	C730.829163,530.740112 735.466492,527.722107 740.093323,526.060669 
	C740.060913,526.057983 740.073547,526.121765 740.402283,526.084534 
	C741.286011,525.740967 741.841064,525.434570 742.602173,524.969360 
	C743.219238,524.260803 743.630127,523.711182 744.303833,523.050171 
	C744.761963,522.624268 744.957458,522.309875 745.075195,522.000977 
	C744.997375,522.006470 745.008728,522.161987 745.283936,522.065186 
	C745.758179,521.646057 745.957214,521.323669 746.078857,520.997131 
	C746.001404,520.992981 745.992798,521.147888 746.270264,521.059937 
	C746.769043,520.662354 746.990295,520.352844 747.467224,519.976562 
	C748.046021,519.771118 748.369141,519.632446 748.692261,519.493774 
	C747.914551,521.067505 747.525757,523.108215 746.292664,524.135071 
	C740.547546,528.919128 734.956543,534.152466 726.610840,533.782166 
	C720.306458,533.502502 713.993286,533.283813 707.684326,533.293579 
	C703.210449,533.300476 698.737793,533.929688 694.263550,533.943909 
	C671.798462,534.015442 649.332397,534.081543 626.867981,533.941040 
	C609.915405,533.834961 592.964111,533.148438 576.013428,533.191467 
	C544.386292,533.271790 512.759949,533.685486 481.133484,533.986511 
	C477.029968,534.025574 473.022736,534.210327 471.439667,529.073425 
	C471.223358,528.371460 469.190002,527.654480 468.207336,527.875488 
	C465.641998,528.452454 462.549622,528.889099 460.831726,530.570923 
	C457.289917,534.038391 453.055145,533.525269 448.896240,534.353760 
	C445.417419,535.046814 442.303406,537.404053 438.859680,538.492004 
	C435.960724,539.407837 432.819824,539.557739 429.402008,539.810730 
	C429.017975,539.574707 429.009857,539.121582 429.319397,538.920044 
	C442.523346,534.321655 455.481110,530.098083 468.271698,525.417542 
	C471.891357,524.092957 475.672943,522.038696 478.251770,519.268494 
	C485.139099,511.870087 485.811005,500.656738 480.623260,492.433533 
	C475.526886,484.355225 465.847687,480.948395 455.615570,484.010132 
	C449.574554,485.817719 443.705414,488.194458 437.738770,490.256744 
	C423.167694,495.292816 408.584900,500.294830 393.666992,505.324249 
	C391.880798,505.987244 390.434479,506.636566 388.711243,507.269958 
	C387.951202,507.464874 387.468048,507.675781 386.646973,507.949799 
	C386.011505,508.328766 385.713928,508.644623 385.454712,508.829529 
	C385.493103,508.698608 385.231354,508.621582 384.806671,508.643463 
	C373.869659,512.166565 363.100342,515.061707 352.931732,519.373474 
	C345.671661,522.451965 339.693512,522.317139 333.714172,517.400879 
	C333.461151,517.192871 333.154938,517.044617 332.861755,516.890930 
	C324.588806,512.554443 316.314362,508.220825 308.041809,503.920471 
	C308.043488,503.954193 308.110077,503.943176 307.955139,503.634094 
	C290.624359,493.555389 273.617615,483.470276 256.206604,474.139435 
	C246.415421,468.892181 233.635010,473.846405 228.533020,483.781250 
	C223.366348,493.842010 226.903320,505.765045 236.905533,511.590210 
	C237.952682,512.237305 238.811249,512.663269 239.691833,513.198120 
	C239.713852,513.307007 239.936050,513.312317 240.111160,513.545410 
	C241.146072,514.208191 242.005875,514.637756 243.077850,515.338745 
	C245.903580,517.044067 248.517136,518.478027 251.228165,520.024292 
	C251.325638,520.136597 251.622833,520.145691 251.854004,520.414856 
	C256.324188,523.140869 260.563232,525.597717 264.802246,528.054565 
z"/>
<path fill="#B19A64" opacity="1.000000" stroke="none" 
	d="
M318.709808,501.255402 
	C301.675385,491.808258 284.645325,482.353210 267.601685,472.922729 
	C265.125916,471.552826 262.599060,470.272675 260.072021,468.998169 
	C246.048477,461.925323 230.515533,466.853149 222.849640,480.793060 
	C216.044342,493.168060 221.171295,510.234711 233.991669,517.648499 
	C241.023865,521.715088 248.129181,525.655273 255.021393,530.098572 
	C235.529984,532.326599 216.639511,531.984863 202.202499,516.066406 
	C188.288330,500.724487 185.012680,483.092316 192.498993,463.634155 
	C192.976685,462.392548 193.570450,461.195618 194.166534,459.620178 
	C194.222855,459.262451 194.163696,459.258667 194.445068,459.063599 
	C195.243500,457.946899 195.760559,457.025299 196.277618,456.103699 
	C196.564789,455.762665 196.851959,455.421631 197.456161,454.634430 
	C206.156036,442.944336 217.072510,435.940430 231.054474,434.570068 
	C228.922211,436.472412 226.889435,439.374207 224.864883,439.368530 
	C218.593719,439.350830 213.862091,442.453888 209.822342,446.208313 
	C203.022690,452.527802 194.833710,458.233246 194.797531,469.143768 
	C194.793961,470.224609 193.890503,471.272522 193.673233,472.388000 
	C192.869568,476.513916 191.443588,480.699738 191.654892,484.790527 
	C191.860535,488.771362 194.504013,492.613373 194.781631,496.606445 
	C195.157837,502.017731 197.258514,506.231903 200.978027,509.782349 
	C203.485657,512.175964 206.942917,513.794861 208.862915,516.538696 
	C212.989349,522.435730 218.921768,525.275818 225.313629,527.045166 
	C229.788055,528.283691 234.732681,528.677368 239.480148,525.692322 
	C238.697662,524.668762 238.279160,523.512390 237.541336,523.248413 
	C227.827118,519.772644 223.469391,510.971252 217.871475,503.459442 
	C216.929871,502.195862 216.650284,500.131042 216.741257,498.473541 
	C216.903091,495.525238 217.804520,492.620544 218.006302,489.670898 
	C218.864899,477.119965 230.836426,463.785370 245.134277,463.936615 
	C253.581589,464.026001 260.979248,465.625885 268.445618,470.562622 
	C280.729279,478.684387 294.261230,484.896851 307.061188,492.271362 
	C311.271759,494.697235 314.845093,498.229187 318.709808,501.255402 
z"/>
<path fill="#AE9863" opacity="1.000000" stroke="none" 
	d="
M681.975525,466.985168 
	C678.963684,467.138397 675.951782,467.291656 672.089355,467.433838 
	C669.826050,467.520752 668.413391,467.618744 666.541870,467.616760 
	C659.395813,467.604156 652.708618,467.691528 645.650635,467.666382 
	C644.516907,467.625000 643.753784,467.696167 642.572876,467.662720 
	C640.440918,467.621490 638.726807,467.684906 636.640503,467.630676 
	C631.179688,467.602875 626.091064,467.692719 620.593872,467.678162 
	C618.789795,467.640533 617.394287,467.707336 615.671875,467.670807 
	C614.897034,467.629425 614.449097,467.691376 613.592651,467.635681 
	C611.771912,467.398926 610.359619,467.279785 608.784912,466.885620 
	C607.785522,465.988770 606.948425,465.366943 606.005371,464.470581 
	C605.303101,463.703827 604.706787,463.211578 604.094666,462.528381 
	C604.078796,462.337463 603.908325,461.994324 603.896851,461.724609 
	C603.608276,461.238617 603.331177,461.022369 603.059692,460.852722 
	C603.065369,460.899353 603.158569,460.887787 603.087708,460.551575 
	C601.366089,458.095154 599.715332,455.974915 597.996643,453.598511 
	C597.446045,452.833771 596.963440,452.325256 596.346802,451.541718 
	C595.903625,450.737793 595.594482,450.208862 595.647644,449.664185 
	C599.291321,453.035187 602.864685,456.191742 605.768860,459.875854 
	C608.464233,463.295135 611.372314,465.122498 615.861877,465.083771 
	C633.856750,464.928375 651.853882,465.038788 669.849976,464.995087 
	C671.549255,464.990936 673.247559,464.596344 674.296936,464.464600 
	C671.010925,459.007660 667.954163,453.930786 664.895630,448.854980 
	C664.809814,448.712646 664.711426,448.576477 664.607117,448.446960 
	C657.218262,439.267853 649.832092,430.086609 642.437073,420.912445 
	C633.202087,409.455658 623.935852,398.023926 614.730408,386.543457 
	C609.959595,380.593628 605.410767,374.462708 600.544678,368.593414 
	C594.942444,361.836304 583.063049,359.269562 574.926819,362.720459 
	C569.719666,364.929108 564.468628,367.034515 559.114868,369.082581 
	C558.992493,368.979004 558.742737,368.777924 558.923767,368.493469 
	C573.042114,354.611908 596.008545,355.285980 607.745117,372.840607 
	C609.764648,375.861237 612.380066,378.483521 614.720215,381.289795 
	C614.720215,381.289795 614.796021,381.186707 614.863281,381.535034 
	C616.886108,384.332153 618.841675,386.780914 620.797302,389.229675 
	C620.797302,389.229675 620.822266,389.161438 620.888428,389.454956 
	C621.534119,390.294678 622.113586,390.840881 622.693054,391.387115 
	C622.693054,391.387115 622.686340,391.312592 622.784485,391.627808 
	C626.538574,396.421844 630.194458,400.900696 633.850403,405.379547 
	C633.850403,405.379547 633.970886,405.745270 634.204468,406.125763 
	C635.042053,407.185364 635.646179,407.864502 636.250244,408.543610 
	C636.250244,408.543610 636.244080,408.709900 636.469849,409.017517 
	C639.401001,412.623749 642.106384,415.922363 644.811768,419.220947 
	C644.811768,419.220947 644.839600,419.155334 644.917358,419.479980 
	C647.013367,422.172913 649.031677,424.541138 651.049927,426.909393 
	C651.049927,426.909393 651.022888,426.966797 651.156982,427.280579 
	C655.795288,433.210815 660.299622,438.827271 664.803894,444.443665 
	C670.415710,451.760284 676.027466,459.076904 681.819336,466.695740 
	C681.999512,466.998016 681.975525,466.985138 681.975525,466.985168 
z"/>
<path fill="#20190C" opacity="1.000000" stroke="none" 
	d="
M231.157715,434.239471 
	C217.072510,435.940430 206.156036,442.944336 197.491547,454.406494 
	C197.134781,448.276245 200.781631,444.546692 206.091568,441.974304 
	C207.134842,441.468872 208.302643,441.074493 209.146881,440.327911 
	C214.611145,435.495789 221.202484,433.066376 228.231232,432.612610 
	C239.150085,431.907654 250.117050,431.873535 261.065918,431.731812 
	C269.386108,431.624115 277.709808,431.809753 286.032043,431.830872 
	C293.977142,431.851013 301.922455,431.806458 309.867523,431.828369 
	C318.152313,431.851227 326.436920,431.946747 334.721680,431.962158 
	C351.624207,431.993591 368.527496,432.094635 385.429108,431.973206 
	C399.372284,431.873077 413.313171,431.318573 427.255676,431.292053 
	C439.014313,431.269653 450.780731,432.052002 462.529877,431.809113 
	C468.079620,431.694366 473.596985,430.013214 479.591919,429.059784 
	C480.054840,429.077789 480.237915,429.278137 480.042603,429.557495 
	C476.914124,432.965027 473.307312,433.700867 469.082275,433.681091 
	C452.357056,433.602753 435.630341,433.837372 418.607727,433.871826 
	C417.907867,433.842438 417.504486,433.897186 416.634094,433.834106 
	C357.041809,433.675079 297.916534,433.632019 238.791275,433.607910 
	C237.803848,433.607513 236.816330,433.837555 235.438751,433.880371 
	C233.751678,433.946960 232.454697,434.093231 231.157715,434.239471 
z"/>
<path fill="#AD9763" opacity="1.000000" stroke="none" 
	d="
M141.257416,526.890991 
	C142.192551,525.240662 143.357849,523.425171 144.783157,521.844116 
	C149.994415,516.063599 155.797272,510.740112 160.446304,504.545776 
	C168.655930,493.607361 168.571594,480.755554 167.742081,467.765656 
	C166.956390,455.461975 161.063980,445.103607 153.387146,436.716614 
	C147.412704,430.189545 138.336594,426.169952 130.086121,422.178833 
	C124.919411,419.679504 118.634766,417.903809 113.017998,418.280731 
	C103.748932,418.902802 94.199379,420.417419 85.548592,423.646820 
	C78.024246,426.455688 71.074120,431.417725 66.696533,439.054840 
	C65.152962,441.747711 62.115833,443.584473 59.179436,445.923553 
	C58.427963,446.030792 58.257690,446.026581 58.087414,446.022339 
	C72.573509,416.986450 113.320320,406.252106 141.873276,423.949707 
	C180.916214,448.149261 180.776474,502.127594 141.257416,526.890991 
z"/>
<path fill="#B19B67" opacity="1.000000" stroke="none" 
	d="
M696.042603,473.110504 
	C696.780640,473.174194 697.518738,473.237885 699.078735,473.322388 
	C708.998291,473.417358 718.097900,473.399872 727.192993,473.594177 
	C734.648621,473.753448 741.062195,476.386536 745.661865,482.477844 
	C745.268677,482.785858 745.111938,482.909698 744.633179,482.914551 
	C739.020081,479.361328 733.807861,475.684570 727.139282,475.596252 
	C710.049438,475.369995 692.959106,475.058105 675.868530,475.032135 
	C626.444458,474.957031 577.020203,475.027374 527.596191,474.943848 
	C525.058350,474.939575 522.522034,474.032745 520.448975,473.488434 
	C525.615234,473.300903 530.317688,473.171082 535.384033,473.138306 
	C536.492188,473.172150 537.236389,473.108948 538.392151,473.150909 
	C540.209412,473.191986 541.615051,473.127930 543.381836,473.164612 
	C544.483032,473.202209 545.223206,473.139038 546.417847,473.181030 
	C550.600159,473.224243 554.328003,473.162292 558.372314,473.194214 
	C559.120117,473.226440 559.551392,473.164825 560.434875,473.210266 
	C564.598633,473.256073 568.310181,473.194855 572.477844,473.238556 
	C578.273010,473.270630 583.612122,473.197754 589.414307,473.229065 
	C596.251587,473.251587 602.625793,473.170013 609.457275,473.200378 
	C624.942383,473.254059 639.970276,473.195740 655.419189,473.234009 
	C657.560303,473.274506 659.280457,473.218445 661.449219,473.270874 
	C665.571289,473.324615 669.244690,473.269836 672.918030,473.215057 
	C677.325378,473.253479 681.732788,473.291931 686.986816,473.343567 
	C689.562012,473.279663 691.290527,473.202545 693.019043,473.125427 
	C693.452759,473.179779 693.886475,473.234131 694.910645,473.272461 
	C695.681580,473.207794 695.862122,473.159149 696.042603,473.110504 
z"/>
<path fill="#AD9864" opacity="1.000000" stroke="none" 
	d="
M57.833447,446.255737 
	C58.257690,446.026581 58.427963,446.030792 58.854664,446.044373 
	C55.597301,456.104126 52.887928,466.259216 52.900185,477.075836 
	C52.917969,492.773254 58.735252,506.488495 69.885811,516.618652 
	C87.169044,532.320251 107.622498,538.066895 130.618423,529.644470 
	C132.769424,528.856628 135.092606,528.538940 137.755768,528.003540 
	C131.867172,530.306641 125.719223,533.851135 119.221619,534.691162 
	C94.665100,537.865845 74.459366,529.139221 60.516346,508.769775 
	C46.999249,489.022522 46.332588,467.827728 57.833447,446.255737 
z"/>
<path fill="#20190C" opacity="1.000000" stroke="none" 
	d="
M614.744995,380.931610 
	C612.380066,378.483521 609.764648,375.861237 607.745117,372.840607 
	C596.008545,355.285980 573.042114,354.611908 558.611938,368.615784 
	C543.780518,380.105255 529.441895,391.188019 515.103149,402.270752 
	C515.940247,400.527435 516.336792,398.241425 517.694336,397.139343 
	C522.379700,393.335754 527.536377,390.116302 532.261780,386.357788 
	C539.718018,380.427246 547.044495,374.327271 554.290100,368.139923 
	C563.350830,360.402496 573.510498,355.621368 585.627563,357.188354 
	C590.513672,357.820251 595.755554,359.042236 599.868286,361.569672 
	C606.959534,365.927582 613.980042,370.988647 614.744995,380.931610 
z"/>
<path fill="#261D10" opacity="1.000000" stroke="none" 
	d="
M429.009857,539.121582 
	C429.009857,539.121582 429.017975,539.574707 429.019348,539.801636 
	C415.848724,544.999878 402.676819,549.971497 389.503479,554.939392 
	C389.350189,554.997192 389.156403,554.966919 389.018585,555.043945 
	C380.649780,559.723755 370.312622,559.450256 362.435944,564.277527 
	C356.390930,567.982361 350.446136,566.738525 344.579834,567.800293 
	C347.780731,566.335571 350.964050,565.204651 354.403107,564.064331 
	C355.124664,563.846191 355.590485,563.637451 356.450378,563.388733 
	C365.267578,560.499512 373.684509,557.631775 382.115051,554.804749 
	C397.742462,549.564514 413.377838,544.348022 429.009857,539.121582 
z"/>
<path fill="#20190C" opacity="1.000000" stroke="none" 
	d="
M745.898254,482.293640 
	C741.062195,476.386536 734.648621,473.753448 727.192993,473.594177 
	C718.097900,473.399872 708.998291,473.417358 699.440796,473.231384 
	C700.236389,472.438843 701.527527,471.111938 702.741760,471.178925 
	C713.131226,471.752014 723.470459,469.888458 733.988159,472.190704 
	C742.192383,473.986603 747.407532,478.050598 750.838257,485.111237 
	C753.961853,491.539886 758.216553,497.549164 757.102966,505.468048 
	C756.596436,509.070038 755.740051,511.889160 752.187073,513.409241 
	C755.865234,501.707367 754.031372,491.388641 745.898254,482.293640 
z"/>
<path fill="#261D10" opacity="1.000000" stroke="none" 
	d="
M340.031158,567.853638 
	C333.216705,570.161682 327.851837,566.633789 322.391327,563.478027 
	C318.717163,561.354675 315.012085,559.283875 311.360809,557.122009 
	C302.687897,551.986755 294.018036,546.845581 285.403534,541.613586 
	C284.185425,540.873718 283.283844,539.612671 282.472931,538.335815 
	C292.711243,543.490784 302.712341,548.902893 312.964417,554.543945 
	C322.153961,559.133118 331.092560,563.493408 340.031158,567.853638 
z"/>
<path fill="#AB9662" opacity="1.000000" stroke="none" 
	d="
M514.982422,402.463074 
	C529.441895,391.188019 543.780518,380.105255 558.430908,368.900208 
	C558.742737,368.777924 558.992493,368.979004 559.006226,369.409546 
	C557.626282,371.427094 556.424255,373.250214 554.807800,374.562927 
	C544.119873,383.242432 533.590515,392.152039 522.473877,400.251617 
	C517.992798,403.516541 514.367188,408.917023 507.917175,408.353149 
	C510.073822,406.389801 512.057678,404.702301 514.041565,403.014832 
	C514.356262,402.989502 514.629639,402.869690 514.982422,402.463074 
z"/>
<path fill="#AB9461" opacity="1.000000" stroke="none" 
	d="
M312.713440,554.315002 
	C302.712341,548.902893 292.711243,543.490784 282.359924,538.013916 
	C279.292938,536.320923 276.576111,534.692749 273.308105,532.729004 
	C271.171082,531.590637 269.585175,530.787842 267.999298,529.985046 
	C267.386902,529.507629 266.774506,529.030212 266.307190,528.272217 
	C266.673126,527.959534 266.894012,527.927368 267.470642,527.967407 
	C270.081879,529.060486 272.397186,529.967834 274.582733,531.121094 
	C285.848328,537.065247 297.123383,542.994690 308.283386,549.132568 
	C310.193024,550.182861 311.561462,552.217163 313.063293,553.926453 
	C312.946655,554.055969 312.713440,554.315002 312.713440,554.315002 
z"/>
<path fill="#AB9461" opacity="1.000000" stroke="none" 
	d="
M340.421997,567.797302 
	C331.092560,563.493408 322.153961,559.133118 312.964417,554.543945 
	C312.713440,554.315002 312.946655,554.055969 313.431335,553.992310 
	C319.007080,556.190186 324.222839,558.211609 329.157684,560.774048 
	C335.325958,563.976868 341.393646,566.289673 348.473083,563.760559 
	C350.117340,563.173096 352.243103,563.933472 354.147339,564.073730 
	C350.964050,565.204651 347.780731,566.335571 344.280823,567.637207 
	C342.913757,567.785645 341.863281,567.763306 340.421997,567.797302 
z"/>
<path fill="#BFA15B" opacity="1.000000" stroke="none" 
	d="
M744.041077,523.161560 
	C743.630127,523.711182 743.219238,524.260803 742.199829,524.933594 
	C741.055908,525.025452 740.520447,524.994202 740.015320,524.599609 
	C744.514221,515.822632 749.722534,507.717957 751.142334,498.255310 
	C751.457092,500.309570 752.021729,502.145081 751.753845,503.849701 
	C751.048523,508.336517 749.981323,512.766357 749.053589,517.512024 
	C749.041565,518.195374 749.034363,518.585571 749.027161,518.975830 
	C749.027161,518.975830 748.760742,519.170471 748.726501,519.332153 
	C748.369141,519.632446 748.046021,519.771118 747.247986,520.142334 
	C746.513000,520.632568 746.252869,520.890198 745.992798,521.147888 
	C745.992798,521.147888 746.001404,520.992981 745.871704,521.174805 
	C745.497620,521.625061 745.253174,521.893494 745.008728,522.161987 
	C745.008728,522.161987 744.997375,522.006470 744.873474,522.179810 
	C744.513428,522.622620 744.277283,522.892090 744.041077,523.161560 
z"/>
<path fill="#B19B67" opacity="1.000000" stroke="none" 
	d="
M749.058228,517.218933 
	C749.981323,512.766357 751.048523,508.336517 751.753845,503.849701 
	C752.021729,502.145081 751.457092,500.309570 751.120544,497.867126 
	C749.279968,493.810059 747.518311,490.452789 745.940613,487.011169 
	C745.381348,485.791077 745.270630,484.365356 744.955200,483.033508 
	C745.111938,482.909698 745.268677,482.785858 745.661865,482.477844 
	C754.031372,491.388641 755.865234,501.707367 751.866760,513.549438 
	C751.537720,514.432556 751.235168,514.920166 750.739624,515.798340 
	C750.546631,516.188904 750.463623,516.544922 750.463623,516.544922 
	C750.463623,516.544922 750.579468,516.582336 750.296448,516.655762 
	C749.695007,516.892395 749.376648,517.055664 749.058228,517.218933 
z"/>
<path fill="#20190C" opacity="1.000000" stroke="none" 
	d="
M664.813721,444.026489 
	C660.299622,438.827271 655.795288,433.210815 651.187866,427.273468 
	C657.457092,431.026062 664.066467,434.904144 664.813721,444.026489 
z"/>
<path fill="#20190C" opacity="1.000000" stroke="none" 
	d="
M633.885742,404.989014 
	C630.194458,400.900696 626.538574,396.421844 622.747314,391.631653 
	C628.315308,392.186310 634.312988,399.228210 633.885742,404.989014 
z"/>
<path fill="#20190C" opacity="1.000000" stroke="none" 
	d="
M513.663086,403.029602 
	C512.057678,404.702301 510.073822,406.389801 507.930054,408.359436 
	C507.770111,408.641571 507.752289,408.655304 507.431671,408.776062 
	C503.440430,411.634430 499.769836,414.371979 496.030029,417.031464 
	C495.960846,416.953369 495.823517,416.796234 495.823517,416.796234 
	C500.582764,410.864960 505.657684,405.334473 513.663086,403.029602 
z"/>
<path fill="#20190C" opacity="1.000000" stroke="none" 
	d="
M672.854370,472.864990 
	C669.244690,473.269836 665.571289,473.324615 661.633667,472.979431 
	C663.246460,470.958557 665.123535,469.337616 667.000671,467.716675 
	C668.413391,467.618744 669.826050,467.520752 671.651123,467.540985 
	C672.305908,469.277802 672.548340,470.896362 672.854370,472.864990 
z"/>
<path fill="#AF9964" opacity="1.000000" stroke="none" 
	d="
M267.114868,527.895142 
	C266.894012,527.927368 266.673126,527.959534 266.121735,528.044800 
	C265.791199,528.098022 265.296143,528.089722 265.049194,528.072144 
	C260.563232,525.597717 256.324188,523.140869 252.190979,520.297668 
	C258.939880,519.410461 262.753082,524.161865 267.114868,527.895142 
z"/>
<path fill="#20190C" opacity="1.000000" stroke="none" 
	d="
M479.962952,428.977966 
	C483.630646,425.920746 487.390228,422.963348 491.575073,420.009796 
	C492.000336,420.013641 492.159698,420.184937 491.981659,420.465759 
	C487.948395,423.590424 484.093140,426.434265 480.237915,429.278137 
	C480.237915,429.278137 480.054840,429.077789 479.962952,428.977966 
z"/>
<path fill="#20190C" opacity="1.000000" stroke="none" 
	d="
M644.801025,418.848267 
	C642.106384,415.922363 639.401001,412.623749 636.551514,409.033325 
	C641.497314,410.009277 643.411804,414.011627 644.801025,418.848267 
z"/>
<path fill="#20190C" opacity="1.000000" stroke="none" 
	d="
M620.790405,388.838440 
	C618.841675,386.780914 616.886108,384.332153 614.808350,381.567932 
	C619.171265,381.572266 620.470764,384.591644 620.790405,388.838440 
z"/>
<path fill="#20190C" opacity="1.000000" stroke="none" 
	d="
M651.027466,426.536530 
	C649.031677,424.541138 647.013367,422.172913 644.882141,419.485565 
	C648.776794,419.779724 650.496338,422.432098 651.027466,426.536530 
z"/>
<path fill="#20190C" opacity="1.000000" stroke="none" 
	d="
M268.049988,530.327759 
	C269.585175,530.787842 271.171082,531.590637 272.976532,532.646729 
	C270.716553,533.941833 268.742981,533.827271 268.049988,530.327759 
z"/>
<path fill="#20190C" opacity="1.000000" stroke="none" 
	d="
M692.829895,472.838074 
	C691.290527,473.202545 689.562012,473.279663 687.412720,473.246490 
	C688.647156,470.744019 690.518860,470.440857 692.829895,472.838074 
z"/>
<path fill="#20190C" opacity="1.000000" stroke="none" 
	d="
M491.920532,419.928040 
	C492.957031,418.889160 494.073334,417.935852 495.506592,416.889374 
	C495.823517,416.796234 495.960846,416.953369 495.854889,417.293793 
	C494.552521,418.484467 493.356110,419.334686 492.159698,420.184937 
	C492.159698,420.184937 492.000336,420.013641 491.920532,419.928040 
z"/>
<path fill="#20190C" opacity="1.000000" stroke="none" 
	d="
M636.255493,408.240417 
	C635.646179,407.864502 635.042053,407.185364 634.356323,406.244019 
	C634.936707,406.633575 635.598755,407.285400 636.255493,408.240417 
z"/>
<path fill="#20190C" opacity="1.000000" stroke="none" 
	d="
M195.973389,456.247498 
	C195.760559,457.025299 195.243500,457.946899 194.470306,459.060883 
	C194.699173,458.299286 195.184158,457.345306 195.973389,456.247498 
z"/>
<path fill="#20190C" opacity="1.000000" stroke="none" 
	d="
M749.053528,517.512024 
	C749.376648,517.055664 749.695007,516.892395 750.254761,516.611328 
	C750.175781,517.209839 749.855469,517.926086 749.281189,518.809082 
	C749.034363,518.585571 749.041565,518.195374 749.053528,517.512024 
z"/>
<path fill="#20190C" opacity="1.000000" stroke="none" 
	d="
M681.991089,466.985382 
	C682.259155,467.134918 682.549316,467.279297 682.801575,467.473083 
	C682.857910,467.516327 682.780945,467.733124 682.765320,467.870026 
	C682.540833,467.683228 682.316345,467.496429 682.033691,467.147369 
	C681.975525,466.985138 681.999512,466.998016 681.991089,466.985382 
z"/>
<path fill="#20190C" opacity="1.000000" stroke="none" 
	d="
M622.610229,391.085327 
	C622.113586,390.840881 621.534119,390.294678 620.853149,389.463531 
	C621.343567,389.713623 621.935486,390.248596 622.610229,391.085327 
z"/>
<path fill="#20190C" opacity="1.000000" stroke="none" 
	d="
M750.564514,516.523376 
	C750.463623,516.544922 750.546631,516.188904 750.697876,516.086304 
	C750.921265,516.206848 750.860046,516.379578 750.564514,516.523376 
z"/>
<path fill="#20190C" opacity="1.000000" stroke="none" 
	d="
M695.913818,473.042847 
	C695.862122,473.159149 695.681580,473.207794 695.229492,473.184753 
	C695.214050,472.941376 695.489807,472.895416 695.913818,473.042847 
z"/>
<path fill="#C1A052" opacity="1.000000" stroke="none" 
	d="
M744.633179,482.914551 
	C745.270630,484.365356 745.381348,485.791077 745.940613,487.011169 
	C747.518311,490.452789 749.279968,493.810059 750.990906,497.588745 
	C749.722534,507.717957 744.514221,515.822632 740.031860,524.890137 
	C740.036621,525.736694 740.055054,525.929260 740.073547,526.121765 
	C740.073547,526.121765 740.060913,526.057983 739.700806,526.083496 
	C736.572876,526.741028 733.805054,527.372925 730.660645,527.830811 
	C728.150391,527.439636 726.017456,527.044800 723.882690,527.034668 
	C711.088989,526.974060 698.294800,526.974609 685.500916,527.005554 
	C656.924622,527.074585 628.348145,527.145874 599.772522,527.333435 
	C598.159729,527.343994 596.553894,528.410339 594.508545,528.989258 
	C591.730835,528.992676 589.389282,528.992188 586.906860,528.761414 
	C585.827148,528.683472 584.888428,528.835754 583.633667,528.988037 
	C582.896118,528.987061 582.474670,528.986084 581.812012,528.688599 
	C579.204285,527.929932 576.839050,527.074341 574.470825,527.065735 
	C547.607971,526.968384 520.744324,527.058350 493.881897,526.907043 
	C491.242920,526.892212 488.611084,525.608765 485.932648,524.591553 
	C485.589325,523.459290 485.289307,522.649719 484.989288,521.840088 
	C485.011200,521.558777 485.129181,521.326172 485.856323,520.941162 
	C487.926270,518.498718 489.483124,516.257507 491.393768,513.901978 
	C492.400543,513.097839 493.597626,512.425049 493.619995,511.715271 
	C493.791016,506.289703 493.853485,500.851715 493.620087,495.431793 
	C493.583984,494.592987 491.866058,493.826538 490.690826,492.815979 
	C489.542725,492.117432 488.629669,491.629517 487.716644,491.141632 
	C487.716644,491.141632 487.815491,491.152649 487.834106,490.805328 
	C486.537567,482.960083 481.156311,478.560486 472.798615,478.150085 
	C472.798615,478.150085 472.866364,478.164062 472.892212,477.827850 
	C472.939545,476.997742 472.961060,476.503815 472.844910,475.724426 
	C469.595856,472.625427 466.372162,472.044342 462.547882,474.955017 
	C459.019897,475.967072 455.917114,476.973450 452.814362,477.979828 
	C452.814362,477.979828 452.704803,478.132141 452.182434,478.070068 
	C449.723328,478.724457 447.786591,479.440918 445.849823,480.157410 
	C444.866333,480.567596 443.882812,480.977783 442.316345,481.156921 
	C441.156830,480.627594 440.580292,480.329315 439.745667,480.061859 
	C438.964691,480.731842 438.441833,481.371033 437.900024,482.211975 
	C437.881012,482.413727 437.850952,482.817932 437.850952,482.817932 
	C437.850952,482.817932 437.507019,482.938232 436.886353,482.956238 
	C434.518951,482.998810 432.772186,483.023376 430.692047,483.080170 
	C429.237854,483.741638 428.117096,484.370911 426.745850,485.008057 
	C426.328339,485.021820 426.161346,485.027679 425.792297,484.962677 
	C425.052612,485.257568 424.515015,485.623352 423.802551,486.221527 
	C423.350586,486.968323 423.073456,487.482727 422.796326,487.997101 
	C421.813965,488.391296 420.831573,488.785522 419.194946,488.998047 
	C415.998566,489.526489 413.456482,490.236572 410.570251,491.001526 
	C409.007782,491.965057 407.789490,492.873688 406.571198,493.782288 
	C406.571198,493.782288 406.504059,493.855713 406.020752,493.680542 
	C400.926453,494.519409 396.197052,495.167725 391.726624,496.615692 
	C378.022644,501.054382 364.405762,505.764160 350.780914,510.443939 
	C345.427399,512.282776 341.075684,512.918457 335.822540,508.457703 
	C331.324524,504.638092 324.515076,503.540497 318.727936,501.239014 
	C318.727936,501.239014 318.713959,501.224426 318.711884,501.239929 
	C314.845093,498.229187 311.271759,494.697235 307.061188,492.271362 
	C294.261230,484.896851 280.729279,478.684387 268.445618,470.562622 
	C260.979248,465.625885 253.581589,464.026001 245.134277,463.936615 
	C230.836426,463.785370 218.864899,477.119965 218.006302,489.670898 
	C217.804520,492.620544 216.903091,495.525238 216.741257,498.473541 
	C216.650284,500.131042 216.929871,502.195862 217.871475,503.459442 
	C223.469391,510.971252 227.827118,519.772644 237.541336,523.248413 
	C238.279160,523.512390 238.697662,524.668762 239.480148,525.692322 
	C234.732681,528.677368 229.788055,528.283691 225.313629,527.045166 
	C218.921768,525.275818 212.989349,522.435730 208.862915,516.538696 
	C206.942917,513.794861 203.485657,512.175964 200.978027,509.782349 
	C197.258514,506.231903 195.157837,502.017731 194.781631,496.606445 
	C194.504013,492.613373 191.860535,488.771362 191.654892,484.790527 
	C191.443588,480.699738 192.869568,476.513916 193.673233,472.388000 
	C193.890503,471.272522 194.793961,470.224609 194.797531,469.143768 
	C194.833710,458.233246 203.022690,452.527802 209.822342,446.208313 
	C213.862091,442.453888 218.593719,439.350830 224.864883,439.368530 
	C226.889435,439.374207 228.922211,436.472412 231.054474,434.570068 
	C232.454697,434.093231 233.751678,433.946960 235.822128,434.069885 
	C248.855789,434.893188 261.114166,435.847107 273.376648,435.902893 
	C289.655518,435.976959 305.937103,435.124695 322.218445,435.089050 
	C337.985840,435.054504 353.753723,435.617096 369.522736,435.792877 
	C383.618378,435.950012 397.716400,436.009827 411.811890,435.907990 
	C413.579590,435.895233 415.338257,434.634430 417.101105,433.951904 
	C417.504486,433.897186 417.907867,433.842438 418.838013,434.179626 
	C421.060089,435.043182 422.750031,435.898743 424.451660,435.922638 
	C433.711151,436.052643 442.973480,435.974487 452.234833,435.974365 
	C457.550354,435.974304 462.960022,436.603088 468.153656,435.810730 
	C472.881622,435.089386 477.844208,433.585205 481.868195,431.082977 
	C488.887756,426.718079 495.417297,421.506866 501.834991,416.262238 
	C504.260071,414.280457 505.805725,411.222595 507.752258,408.655304 
	C507.752289,408.655304 507.770111,408.641571 507.757263,408.635315 
	C514.367188,408.917023 517.992798,403.516541 522.473877,400.251617 
	C533.590515,392.152039 544.119873,383.242432 554.807800,374.562927 
	C556.424255,373.250214 557.626282,371.427094 559.128662,369.513123 
	C564.468628,367.034515 569.719666,364.929108 574.926819,362.720459 
	C583.063049,359.269562 594.942444,361.836304 600.544678,368.593414 
	C605.410767,374.462708 609.959595,380.593628 614.730408,386.543457 
	C623.935852,398.023926 633.202087,409.455658 642.437073,420.912445 
	C649.832092,430.086609 657.218262,439.267853 664.607117,448.446960 
	C664.711426,448.576477 664.809814,448.712646 664.895630,448.854980 
	C667.954163,453.930786 671.010925,459.007660 674.296936,464.464600 
	C673.247559,464.596344 671.549255,464.990936 669.849976,464.995087 
	C651.853882,465.038788 633.856750,464.928375 615.861877,465.083771 
	C611.372314,465.122498 608.464233,463.295135 605.768860,459.875854 
	C602.864685,456.191742 599.291321,453.035187 595.612427,449.654266 
	C595.214844,449.660065 595.241943,449.590118 595.282715,449.219543 
	C593.607605,445.027130 593.044434,440.349365 587.951904,438.641937 
	C585.992432,435.618439 584.178772,432.875824 582.163635,430.290161 
	C578.202515,425.207581 576.495239,424.955994 571.463745,428.711121 
	C563.910828,434.348145 556.370667,440.004150 548.907959,445.759644 
	C541.278137,451.644104 533.624023,457.509827 526.238525,463.692017 
	C523.460693,466.017242 521.407288,469.208008 519.045715,472.330200 
	C519.373535,472.952820 519.679321,473.249481 519.985046,473.546143 
	C522.522034,474.032745 525.058350,474.939575 527.596191,474.943848 
	C577.020203,475.027374 626.444458,474.957031 675.868530,475.032135 
	C692.959106,475.058105 710.049438,475.369995 727.139282,475.596252 
	C733.807861,475.684570 739.020081,479.361328 744.633179,482.914551 
z"/>
<path fill="#C1A052" opacity="1.000000" stroke="none" 
	d="
M267.470642,527.967407 
	C262.753082,524.161865 258.939880,519.410461 251.959808,520.028503 
	C251.622833,520.145691 251.325638,520.136597 251.154114,519.676270 
	C249.175476,516.075012 247.444336,512.785522 242.865692,515.067383 
	C242.005875,514.637756 241.146072,514.208191 240.145966,513.486328 
	C240.005646,513.194031 239.911560,512.981689 239.911560,512.981689 
	C239.911560,512.981689 239.669815,513.089172 239.669815,513.089172 
	C238.811249,512.663269 237.952682,512.237305 237.026672,511.314392 
	C236.677078,509.936523 236.647278,508.816498 236.073959,508.211639 
	C229.854706,501.650574 227.916473,494.182983 230.982162,485.557281 
	C233.064163,479.699188 243.526321,472.911407 248.884018,474.662323 
	C254.477600,476.490326 259.948761,478.931915 265.125916,481.744904 
	C275.708282,487.494720 285.975311,493.824249 296.548828,499.591309 
	C300.128784,501.543884 304.241058,502.520538 308.110077,503.943176 
	C308.110077,503.943176 308.043488,503.954193 308.143921,504.254486 
	C309.618225,505.917847 310.795197,507.601440 312.400635,508.587524 
	C318.751953,512.488586 325.032288,516.600037 331.734650,519.806274 
	C337.671539,522.646423 343.571594,525.794922 350.970367,522.370056 
	C358.454315,518.905823 366.732513,517.198486 374.507080,514.303406 
	C378.265869,512.903687 381.667847,510.545715 385.231354,508.621582 
	C385.231354,508.621582 385.493103,508.698608 385.734406,508.677856 
	C386.312103,508.400299 386.648499,508.143463 386.984924,507.886658 
	C387.468048,507.675781 387.951202,507.464874 389.010315,507.375977 
	C391.056091,507.302124 392.525879,507.106262 394.391479,506.898315 
	C404.754822,503.724976 414.738403,500.613190 424.683685,497.383423 
	C430.336761,495.547577 435.836243,493.178375 441.564758,491.647705 
	C453.441895,488.474060 465.781586,479.394257 476.804047,493.318787 
	C478.562592,495.540283 480.250366,498.211761 480.811737,500.915924 
	C482.797607,510.481567 477.983093,517.263489 469.980957,521.163269 
	C461.194519,525.445251 451.814301,528.534912 442.617310,531.940308 
	C435.376495,534.621338 428.187592,537.903076 420.675507,539.277771 
	C410.698395,541.103638 401.654907,544.870117 392.589203,549.018311 
	C389.651215,550.362671 386.249420,550.680237 383.074951,551.524536 
	C379.304230,552.527466 375.597137,553.836914 371.777649,554.574280 
	C365.496674,555.787048 359.385376,557.071838 356.056274,563.428650 
	C355.590485,563.637451 355.124664,563.846191 354.403107,564.064331 
	C352.243103,563.933472 350.117340,563.173096 348.473083,563.760559 
	C341.393646,566.289673 335.325958,563.976868 329.157684,560.774048 
	C324.222839,558.211609 319.007080,556.190186 313.547943,553.862793 
	C311.561462,552.217163 310.193024,550.182861 308.283386,549.132568 
	C297.123383,542.994690 285.848328,537.065247 274.582733,531.121094 
	C272.397186,529.967834 270.081879,529.060486 267.470642,527.967407 
z"/>
<path fill="#B09963" opacity="1.000000" stroke="none" 
	d="
M356.450378,563.388733 
	C359.385376,557.071838 365.496674,555.787048 371.777649,554.574280 
	C375.597137,553.836914 379.304230,552.527466 383.074951,551.524536 
	C386.249420,550.680237 389.651215,550.362671 392.589203,549.018311 
	C401.654907,544.870117 410.698395,541.103638 420.675507,539.277771 
	C428.187592,537.903076 435.376495,534.621338 442.617310,531.940308 
	C451.814301,528.534912 461.194519,525.445251 469.980957,521.163269 
	C477.983093,517.263489 482.797607,510.481567 480.811737,500.915924 
	C480.250366,498.211761 478.562592,495.540283 476.804047,493.318787 
	C465.781586,479.394257 453.441895,488.474060 441.564758,491.647705 
	C435.836243,493.178375 430.336761,495.547577 424.683685,497.383423 
	C414.738403,500.613190 404.754822,503.724976 394.393494,506.632812 
	C394.002075,506.023132 394.004425,505.666870 394.006836,505.310608 
	C408.584900,500.294830 423.167694,495.292816 437.738770,490.256744 
	C443.705414,488.194458 449.574554,485.817719 455.615570,484.010132 
	C465.847687,480.948395 475.526886,484.355225 480.623260,492.433533 
	C485.811005,500.656738 485.139099,511.870087 478.251770,519.268494 
	C475.672943,522.038696 471.891357,524.092957 468.271698,525.417542 
	C455.481110,530.098083 442.523346,534.321655 429.319397,538.920044 
	C413.377838,544.348022 397.742462,549.564514 382.115051,554.804749 
	C373.684509,557.631775 365.267578,560.499512 356.450378,563.388733 
z"/>
<path fill="#C2A45F" opacity="1.000000" stroke="none" 
	d="
M594.944824,528.985352 
	C596.553894,528.410339 598.159729,527.343994 599.772522,527.333435 
	C628.348145,527.145874 656.924622,527.074585 685.500916,527.005554 
	C698.294800,526.974609 711.088989,526.974060 723.882690,527.034668 
	C726.017456,527.044800 728.150391,527.439636 730.284790,528.007446 
	C720.708862,528.715820 711.134216,529.139954 701.555115,529.400696 
	C697.251770,529.517883 692.939697,529.266846 688.631409,529.255798 
	C678.198730,529.228943 667.762390,529.085876 657.334656,529.314392 
	C652.522217,529.419739 647.726501,530.284851 642.923157,530.805481 
	C642.496887,530.853821 642.070618,530.902161 640.945679,530.723206 
	C625.146240,529.992432 610.045532,529.488892 594.944824,528.985352 
z"/>
<path fill="#AF9964" opacity="1.000000" stroke="none" 
	d="
M307.955139,503.634094 
	C304.241058,502.520538 300.128784,501.543884 296.548828,499.591309 
	C285.975311,493.824249 275.708282,487.494720 265.125916,481.744904 
	C259.948761,478.931915 254.477600,476.490326 248.884018,474.662323 
	C243.526321,472.911407 233.064163,479.699188 230.982162,485.557281 
	C227.916473,494.182983 229.854706,501.650574 236.073959,508.211639 
	C236.647278,508.816498 236.677078,509.936523 236.838104,511.093201 
	C226.903320,505.765045 223.366348,493.842010 228.533020,483.781250 
	C233.635010,473.846405 246.415421,468.892181 256.206604,474.139435 
	C273.617615,483.470276 290.624359,493.555389 307.955139,503.634094 
z"/>
<path fill="#B19B67" opacity="1.000000" stroke="none" 
	d="
M594.508545,528.989258 
	C610.045532,529.488892 625.146240,529.992432 640.629761,530.652100 
	C639.688110,530.893982 638.363647,531.054382 637.039185,531.054504 
	C583.948975,531.058716 530.858704,531.048828 477.768463,531.035034 
	C476.949707,531.034851 476.130951,530.962036 474.643585,530.891235 
	C478.176331,527.744995 481.287140,524.974548 484.693634,522.022095 
	C485.289307,522.649719 485.589325,523.459290 485.787781,524.904785 
	C486.818024,526.696167 487.899170,528.786255 489.090149,528.850830 
	C495.349823,529.190308 501.637299,529.024231 507.915100,529.021790 
	C532.627808,529.012024 557.340515,528.997742 582.053223,528.985107 
	C582.474670,528.986084 582.896118,528.987061 584.021301,528.996338 
	C585.499268,529.000366 586.273560,528.996033 587.047791,528.991699 
	C589.389282,528.992188 591.730835,528.992676 594.508545,528.989258 
z"/>
<path fill="#B19A64" opacity="1.000000" stroke="none" 
	d="
M318.937317,501.518188 
	C324.515076,503.540497 331.324524,504.638092 335.822540,508.457703 
	C341.075684,512.918457 345.427399,512.282776 350.780914,510.443939 
	C364.405762,505.764160 378.022644,501.054382 391.726624,496.615692 
	C396.197052,495.167725 400.926453,494.519409 405.983398,493.647705 
	C386.184387,500.767273 365.951355,507.779694 345.667755,514.642639 
	C344.311768,515.101379 342.320129,514.891663 341.052887,514.203369 
	C333.679749,510.198944 326.434937,505.958252 318.937317,501.518188 
z"/>
<path fill="#AF9964" opacity="1.000000" stroke="none" 
	d="
M384.806671,508.643463 
	C381.667847,510.545715 378.265869,512.903687 374.507080,514.303406 
	C366.732513,517.198486 358.454315,518.905823 350.970367,522.370056 
	C343.571594,525.794922 337.671539,522.646423 331.734650,519.806274 
	C325.032288,516.600037 318.751953,512.488586 312.400635,508.587524 
	C310.795197,507.601440 309.618225,505.917847 308.142273,504.220764 
	C316.314362,508.220825 324.588806,512.554443 332.861755,516.890930 
	C333.154938,517.044617 333.461151,517.192871 333.714172,517.400879 
	C339.693512,522.317139 345.671661,522.451965 352.931732,519.373474 
	C363.100342,515.061707 373.869659,512.166565 384.806671,508.643463 
z"/>
<path fill="#B19B67" opacity="1.000000" stroke="none" 
	d="
M643.390625,530.901306 
	C647.726501,530.284851 652.522217,529.419739 657.334656,529.314392 
	C667.762390,529.085876 678.198730,529.228943 688.631409,529.255798 
	C692.939697,529.266846 697.251770,529.517883 701.555115,529.400696 
	C711.134216,529.139954 720.708862,528.715820 730.661255,528.181580 
	C733.805054,527.372925 736.572876,526.741028 739.733276,526.086243 
	C735.466492,527.722107 730.829163,530.740112 726.144470,530.815552 
	C698.721802,531.257568 671.288086,531.011292 643.390625,530.901306 
z"/>
<path fill="#B19B67" opacity="1.000000" stroke="none" 
	d="
M487.751038,491.537781 
	C488.629669,491.629517 489.542725,492.117432 490.728516,493.237671 
	C491.014160,500.585419 491.027069,507.300873 491.039978,514.016296 
	C489.483124,516.257507 487.926270,518.498718 486.038239,520.858643 
	C490.817932,511.612335 491.673950,501.942902 487.751038,491.537781 
z"/>
<path fill="#B19B67" opacity="1.000000" stroke="none" 
	d="
M473.003296,478.435150 
	C481.156311,478.560486 486.537567,482.960083 487.828339,490.854706 
	C482.938629,487.074341 478.073303,482.897278 473.003296,478.435150 
z"/>
<path fill="#B19B67" opacity="1.000000" stroke="none" 
	d="
M453.227844,477.965973 
	C455.917114,476.973450 459.019897,475.967072 462.974976,474.973206 
	C466.879059,475.327118 469.930817,475.668518 472.982544,476.009949 
	C472.961060,476.503815 472.939545,476.997742 472.882629,477.861084 
	C466.470276,476.412354 460.077332,475.697845 453.227844,477.965973 
z"/>
<path fill="#AF9964" opacity="1.000000" stroke="none" 
	d="
M243.077850,515.338745 
	C247.444336,512.785522 249.175476,516.075012 251.056641,519.563965 
	C248.517136,518.478027 245.903580,517.044067 243.077850,515.338745 
z"/>
<path fill="#B79E63" opacity="1.000000" stroke="none" 
	d="
M410.914398,490.946655 
	C413.456482,490.236572 415.998566,489.526489 418.868530,488.993713 
	C417.438293,489.841339 415.680237,490.511658 413.256042,491.087830 
	C412.031433,490.978027 411.472900,490.962341 410.914398,490.946655 
z"/>
<path fill="#B19B67" opacity="1.000000" stroke="none" 
	d="
M425.994354,485.033508 
	C426.161346,485.027679 426.328339,485.021820 427.008057,485.092285 
	C428.011505,485.415192 428.502197,485.661804 428.992889,485.908447 
	C427.181732,486.629364 425.370575,487.350311 423.177856,488.034180 
	C423.073456,487.482727 423.350586,486.968323 424.070251,486.135925 
	C425.006653,485.556458 425.500488,485.294983 425.994354,485.033508 
z"/>
<path fill="#B19A64" opacity="1.000000" stroke="none" 
	d="
M410.570251,491.001556 
	C411.472900,490.962341 412.031433,490.978027 413.010590,491.007385 
	C411.387634,491.891388 409.344055,492.761688 406.935822,493.707153 
	C407.789490,492.873688 409.007782,491.965057 410.570251,491.001556 
z"/>
<path fill="#B19B67" opacity="1.000000" stroke="none" 
	d="
M431.025452,483.047974 
	C432.772186,483.023376 434.518951,482.998810 436.705780,482.980347 
	C435.363922,483.717926 433.581970,484.449341 431.420349,484.829163 
	C431.035614,484.001007 431.030518,483.524506 431.025452,483.047974 
z"/>
<path fill="#B79E63" opacity="1.000000" stroke="none" 
	d="
M430.692047,483.080170 
	C431.030518,483.524506 431.035614,484.001007 431.045685,484.835541 
	C430.556702,485.460785 430.062775,485.727997 429.280853,485.951813 
	C428.502197,485.661804 428.011505,485.415192 427.258575,485.084412 
	C428.117096,484.370911 429.237854,483.741638 430.692047,483.080170 
z"/>
<path fill="#B19B67" opacity="1.000000" stroke="none" 
	d="
M446.251251,480.201935 
	C447.786591,479.440918 449.723328,478.724457 452.099762,478.025757 
	C450.577179,478.777832 448.614929,479.512146 446.251251,480.201935 
z"/>
<path fill="#AF9964" opacity="1.000000" stroke="none" 
	d="
M393.666962,505.324280 
	C394.004425,505.666870 394.002075,506.023132 393.997681,506.644897 
	C392.525879,507.106262 391.056091,507.302124 389.287231,507.391907 
	C390.434479,506.636566 391.880798,505.987244 393.666962,505.324280 
z"/>
<path fill="#B19B67" opacity="1.000000" stroke="none" 
	d="
M440.003784,480.031067 
	C440.580292,480.329315 441.156830,480.627594 441.990021,481.127136 
	C441.011353,481.876587 439.776001,482.424774 438.195801,482.895447 
	C437.850952,482.817932 437.881012,482.413727 438.140961,482.048401 
	C438.935211,481.132416 439.469482,480.581726 440.003784,480.031067 
z"/>
<path fill="#B19B67" opacity="1.000000" stroke="none" 
	d="
M740.402283,526.084534 
	C740.055054,525.929260 740.036621,525.736694 740.001587,525.253479 
	C740.520447,524.994202 741.055908,525.025452 741.993713,525.092468 
	C741.841064,525.434570 741.286011,525.740967 740.402283,526.084534 
z"/>
<path fill="#B19B67" opacity="1.000000" stroke="none" 
	d="
M746.270264,521.059937 
	C746.252869,520.890198 746.513000,520.632568 746.992310,520.209106 
	C746.990295,520.352844 746.769043,520.662354 746.270264,521.059937 
z"/>
<path fill="#B19B67" opacity="1.000000" stroke="none" 
	d="
M745.283936,522.065186 
	C745.253174,521.893494 745.497620,521.625061 745.949219,521.178955 
	C745.957214,521.323669 745.758179,521.646057 745.283936,522.065186 
z"/>
<path fill="#B19B67" opacity="1.000000" stroke="none" 
	d="
M744.303833,523.050171 
	C744.277283,522.892090 744.513428,522.622620 744.951294,522.174316 
	C744.957458,522.309875 744.761963,522.624268 744.303833,523.050171 
z"/>
<path fill="#AF9964" opacity="1.000000" stroke="none" 
	d="
M386.646973,507.949768 
	C386.648499,508.143463 386.312103,508.400299 385.696045,508.808807 
	C385.713928,508.644623 386.011505,508.328766 386.646973,507.949768 
z"/>
<path fill="#15140D" opacity="1.000000" stroke="none" 
	d="
M537.980591,473.045715 
	C537.236389,473.108948 536.492188,473.172150 535.190063,472.851532 
	C531.739075,470.930573 528.845947,469.393433 526.073120,467.544128 
	C541.777466,455.147583 557.361511,443.063232 573.320862,431.003540 
	C575.905823,432.754913 578.785706,434.068298 580.165894,436.306488 
	C582.168640,439.554169 584.533386,441.472168 588.420166,442.017883 
	C588.859253,442.324677 588.995789,442.585114 589.071777,443.262817 
	C590.263428,447.531189 591.975891,450.930176 596.480774,451.816742 
	C596.963440,452.325256 597.446045,452.833771 597.993591,453.998352 
	C597.861938,458.283936 599.551147,460.370605 603.158569,460.887787 
	C603.158569,460.887787 603.065369,460.899353 603.188721,461.061096 
	C603.497192,461.490570 603.695923,461.747742 603.908325,461.994324 
	C603.908325,461.994324 604.078796,462.337463 604.116089,462.803375 
	C604.806091,463.761230 605.458679,464.253174 606.111328,464.745117 
	C606.948425,465.366943 607.785522,465.988770 608.658813,467.201233 
	C606.421448,468.767395 604.226807,470.062225 601.856934,470.648438 
	C597.610596,471.698792 593.258850,472.322754 588.951172,473.124908 
	C583.612122,473.197754 578.273010,473.270630 572.256958,472.927917 
	C567.592834,470.328674 563.688660,469.771057 559.982666,473.103210 
	C559.551392,473.164825 559.120117,473.226440 558.080200,472.993896 
	C553.635559,472.825134 549.799438,472.950500 545.963379,473.075867 
	C545.223206,473.139038 544.483032,473.202209 543.204773,472.889587 
	C541.104675,472.691101 539.542603,472.868408 537.980591,473.045715 
z"/>
<path fill="#20190C" opacity="1.000000" stroke="none" 
	d="
M654.998169,473.137451 
	C639.970276,473.195740 624.942383,473.254059 609.633667,472.918945 
	C610.902222,470.934753 612.451660,469.344055 614.001099,467.753357 
	C614.449097,467.691376 614.897034,467.629425 615.651855,467.942505 
	C616.640259,469.166565 617.321777,470.015564 618.003296,470.864594 
	C619.002991,469.837250 620.002747,468.809906 621.002502,467.782562 
	C626.091064,467.692719 631.179688,467.602875 636.688843,467.948181 
	C639.924866,471.912567 640.912109,471.809174 642.990723,467.767334 
	C643.753784,467.696167 644.516907,467.625000 645.788086,467.958374 
	C647.700439,469.232635 649.071899,470.162170 650.518005,470.955444 
	C651.972717,471.753326 653.501709,472.415680 654.998169,473.137451 
z"/>
<path fill="#1A140A" opacity="1.000000" stroke="none" 
	d="
M655.419189,473.234009 
	C653.501709,472.415680 651.972717,471.753326 650.518005,470.955444 
	C649.071899,470.162170 647.700439,469.232635 646.158813,468.070892 
	C652.708618,467.691528 659.395813,467.604156 666.541870,467.616730 
	C665.123535,469.337616 663.246460,470.958557 661.184937,472.870941 
	C659.280457,473.218445 657.560303,473.274506 655.419189,473.234009 
z"/>
<path fill="#1A140A" opacity="1.000000" stroke="none" 
	d="
M613.592651,467.635681 
	C612.451660,469.344055 610.902222,470.934753 609.176392,472.806946 
	C602.625793,473.170013 596.251587,473.251587 589.414307,473.229065 
	C593.258850,472.322754 597.610596,471.698792 601.856934,470.648438 
	C604.226807,470.062225 606.421448,468.767395 608.821167,467.476257 
	C610.359619,467.279785 611.771912,467.398926 613.592651,467.635681 
z"/>
<path fill="#15140D" opacity="1.000000" stroke="none" 
	d="
M642.572876,467.662720 
	C640.912109,471.809174 639.924866,471.912567 637.061157,468.065796 
	C638.726807,467.684906 640.440918,467.621490 642.572876,467.662720 
z"/>
<path fill="#20190C" opacity="1.000000" stroke="none" 
	d="
M596.346802,451.541718 
	C591.975891,450.930176 590.263428,447.531189 589.364014,443.427002 
	C591.491150,445.347961 593.366577,447.469055 595.241943,449.590118 
	C595.241943,449.590118 595.214844,449.660065 595.250122,449.669983 
	C595.594482,450.208862 595.903625,450.737793 596.346802,451.541718 
z"/>
<path fill="#1A140A" opacity="1.000000" stroke="none" 
	d="
M620.593872,467.678162 
	C620.002747,468.809906 619.002991,469.837250 618.003296,470.864594 
	C617.321777,470.015564 616.640259,469.166565 615.978760,468.045837 
	C617.394287,467.707336 618.789795,467.640533 620.593872,467.678162 
z"/>
<path fill="#20190C" opacity="1.000000" stroke="none" 
	d="
M603.087708,460.551575 
	C599.551147,460.370605 597.861938,458.283936 598.061523,454.254547 
	C599.715332,455.974915 601.366089,458.095154 603.087708,460.551575 
z"/>
<path fill="#20190C" opacity="1.000000" stroke="none" 
	d="
M606.005371,464.470581 
	C605.458679,464.253174 604.806091,463.761230 604.131958,462.994324 
	C604.706787,463.211578 605.303101,463.703827 606.005371,464.470581 
z"/>
<path fill="#20190C" opacity="1.000000" stroke="none" 
	d="
M603.896851,461.724609 
	C603.695923,461.747742 603.497192,461.490570 603.183105,461.014465 
	C603.331177,461.022369 603.608276,461.238617 603.896851,461.724609 
z"/>
<path fill="#AB9662" opacity="1.000000" stroke="none" 
	d="
M416.634094,433.834106 
	C415.338257,434.634430 413.579590,435.895233 411.811890,435.907990 
	C397.716400,436.009827 383.618378,435.950012 369.522736,435.792877 
	C353.753723,435.617096 337.985840,435.054504 322.218445,435.089050 
	C305.937103,435.124695 289.655518,435.976959 273.376648,435.902893 
	C261.114166,435.847107 248.855789,434.893188 236.212219,434.149536 
	C236.816330,433.837555 237.803848,433.607513 238.791275,433.607910 
	C297.916534,433.632019 357.041809,433.675079 416.634094,433.834106 
z"/>
<path fill="#AB9662" opacity="1.000000" stroke="none" 
	d="
M507.431641,408.776062 
	C505.805725,411.222595 504.260071,414.280457 501.834991,416.262238 
	C495.417297,421.506866 488.887756,426.718079 481.868195,431.082977 
	C477.844208,433.585205 472.881622,435.089386 468.153656,435.810730 
	C462.960022,436.603088 457.550354,435.974304 452.234833,435.974365 
	C442.973480,435.974487 433.711151,436.052643 424.451660,435.922638 
	C422.750031,435.898743 421.060089,435.043182 419.134491,434.263733 
	C435.630341,433.837372 452.357056,433.602753 469.082275,433.681091 
	C473.307312,433.700867 476.914124,432.965027 480.042572,429.557495 
	C484.093140,426.434265 487.948395,423.590424 491.981659,420.465759 
	C493.356110,419.334686 494.552521,418.484467 495.924072,417.371887 
	C499.769836,414.371979 503.440430,411.634430 507.431641,408.776062 
z"/>
<path fill="#1A140A" opacity="1.000000" stroke="none" 
	d="
M525.952820,467.856323 
	C528.845947,469.393433 531.739075,470.930573 534.826172,472.754517 
	C530.317688,473.171082 525.615234,473.300903 520.448975,473.488403 
	C519.679321,473.249481 519.373535,472.952820 519.357178,472.199280 
	C521.748657,470.447021 523.850769,469.151672 525.952820,467.856323 
z"/>
<path fill="#1A140A" opacity="1.000000" stroke="none" 
	d="
M560.434875,473.210266 
	C563.688660,469.771057 567.592834,470.328674 571.800781,472.822998 
	C568.310181,473.194855 564.598633,473.256073 560.434875,473.210266 
z"/>
<path fill="#1A140A" opacity="1.000000" stroke="none" 
	d="
M546.417847,473.181030 
	C549.799438,472.950500 553.635559,472.825134 557.763733,472.900085 
	C554.328003,473.162292 550.600159,473.224243 546.417847,473.181030 
z"/>
<path fill="#1A140A" opacity="1.000000" stroke="none" 
	d="
M538.392151,473.150879 
	C539.542603,472.868408 541.104675,472.691101 542.843750,472.788818 
	C541.615051,473.127930 540.209412,473.191986 538.392151,473.150879 
z"/>
<path fill="#AE9863" opacity="1.000000" stroke="none" 
	d="
M526.073120,467.544128 
	C523.850769,469.151672 521.748657,470.447021 519.335083,471.873291 
	C521.407288,469.208008 523.460693,466.017242 526.238525,463.692017 
	C533.624023,457.509827 541.278137,451.644104 548.907959,445.759644 
	C556.370667,440.004150 563.910828,434.348145 571.463745,428.711121 
	C576.495239,424.955994 578.202515,425.207581 582.163635,430.290161 
	C584.178772,432.875824 585.992432,435.618439 587.755859,438.833130 
	C587.483826,439.503571 587.353088,439.631012 586.957397,439.559814 
	C583.529907,435.437744 580.367371,431.514221 576.937256,427.258820 
	C575.288818,428.795074 574.117188,429.886993 572.945557,430.978882 
	C557.361511,443.063232 541.777466,455.147583 526.073120,467.544128 
z"/>
<path fill="#C2A45F" opacity="1.000000" stroke="none" 
	d="
M581.812012,528.688599 
	C557.340515,528.997742 532.627808,529.012024 507.915100,529.021790 
	C501.637299,529.024231 495.349823,529.190308 489.090149,528.850830 
	C487.899170,528.786255 486.818024,526.696167 485.831055,525.227417 
	C488.611084,525.608765 491.242920,526.892212 493.881897,526.907043 
	C520.744324,527.058350 547.607971,526.968384 574.470825,527.065735 
	C576.839050,527.074341 579.204285,527.929932 581.812012,528.688599 
z"/>
<path fill="#C3A55D" opacity="1.000000" stroke="none" 
	d="
M491.393799,513.901978 
	C491.027069,507.300873 491.014160,500.585419 490.963562,493.448303 
	C491.866058,493.826538 493.583984,494.592987 493.620087,495.431793 
	C493.853485,500.851715 493.791016,506.289703 493.619995,511.715271 
	C493.597626,512.425049 492.400543,513.097839 491.393799,513.901978 
z"/>
<path fill="#AE9863" opacity="1.000000" stroke="none" 
	d="
M595.282715,449.219543 
	C593.366577,447.469055 591.491150,445.347961 589.323547,443.062683 
	C588.995789,442.585114 588.859253,442.324677 588.336670,441.730408 
	C587.775208,440.815186 587.498840,440.286804 587.222412,439.758423 
	C587.353088,439.631012 587.483826,439.503571 587.810547,439.184937 
	C593.044434,440.349365 593.607605,445.027130 595.282715,449.219543 
z"/>
<path fill="#B79E63" opacity="1.000000" stroke="none" 
	d="
M472.844910,475.724426 
	C469.930817,475.668518 466.879059,475.327118 463.400208,474.967499 
	C466.372162,472.044342 469.595856,472.625427 472.844910,475.724426 
z"/>
<path fill="#C2A45F" opacity="1.000000" stroke="none" 
	d="
M586.906860,528.761414 
	C586.273560,528.996033 585.499268,529.000366 584.337402,528.996338 
	C584.888428,528.835754 585.827148,528.683472 586.906860,528.761414 
z"/>
<path fill="#B79E63" opacity="1.000000" stroke="none" 
	d="
M439.745667,480.061859 
	C439.469482,480.581726 438.935211,481.132416 438.159973,481.846649 
	C438.441833,481.371033 438.964691,480.731842 439.745667,480.061859 
z"/>
<path fill="#B79E63" opacity="1.000000" stroke="none" 
	d="
M425.792297,484.962646 
	C425.500488,485.294983 425.006653,485.556458 424.245117,485.903503 
	C424.515015,485.623352 425.052612,485.257568 425.792297,484.962646 
z"/>
<path fill="#AF9964" opacity="1.000000" stroke="none" 
	d="
M239.691833,513.198120 
	C239.669815,513.089172 239.911560,512.981689 239.911560,512.981689 
	C239.911560,512.981689 240.005646,513.194031 239.970856,513.253174 
	C239.936050,513.312317 239.713852,513.307007 239.691833,513.198120 
z"/>
<path fill="#20190C" opacity="1.000000" stroke="none" 
	d="
M586.957397,439.559814 
	C587.498840,440.286804 587.775208,440.815186 588.135132,441.631042 
	C584.533386,441.472168 582.168640,439.554169 580.165894,436.306488 
	C578.785706,434.068298 575.905823,432.754913 573.320862,431.003540 
	C574.117188,429.886993 575.288818,428.795074 576.937256,427.258820 
	C580.367371,431.514221 583.529907,435.437744 586.957397,439.559814 
z"/>
</svg>